<?xml version="1.0" encoding="UTF-8"?>
<svg xmlns="http://www.w3.org/2000/svg" xmlns:xlink="http://www.w3.org/1999/xlink" viewBox="0 0 1107 1927">
  <defs>
    <style>
      .cls-1 {
        fill: url(#Namnlös_övertoning_25);
      }

      .cls-2 {
        fill: url(#Namnlös_övertoning_12);
      }

      .cls-3, .cls-4, .cls-5 {
        fill: #fff;
      }

      .cls-6 {
        fill: url(#Namnlös_övertoning_2);
      }

      .cls-7 {
        stroke: url(#Namnlös_övertoning_4);
      }

      .cls-7, .cls-8 {
        stroke-width: 4px;
      }

      .cls-7, .cls-8, .cls-9, .cls-10 {
        stroke-miterlimit: 10;
      }

      .cls-7, .cls-9, .cls-10 {
        fill: none;
      }

      .cls-4 {
        fill-rule: evenodd;
      }

      .cls-11 {
        fill: url(#Namnlös_övertoning_14);
      }

      .cls-12 {
        fill: url(#Namnlös_övertoning_20);
      }

      .cls-13 {
        fill: url(#Namnlös_övertoning_23);
      }

      .cls-14 {
        fill: url(#Namnlös_övertoning_16);
      }

      .cls-8 {
        fill: url(#Namnlös_övertoning_5);
        stroke: url(#Namnlös_övertoning_6);
      }

      .cls-15 {
        fill: url(#Namnlös_övertoning_21);
      }

      .cls-16 {
        letter-spacing: 0em;
      }

      .cls-17 {
        letter-spacing: .01em;
      }

      .cls-18 {
        letter-spacing: -.03em;
      }

      .cls-19 {
        fill: url(#Namnlös_övertoning_7);
      }

      .cls-9 {
        stroke: #fff;
      }

      .cls-9, .cls-10 {
        stroke-width: 3px;
      }

      .cls-20 {
        fill: url(#Namnlös_övertoning_13);
      }

      .cls-21 {
        letter-spacing: .01em;
      }

      .cls-22 {
        fill: url(#Namnlös_övertoning_17);
      }

      .cls-23 {
        fill: url(#Namnlös_övertoning_10);
      }

      .cls-24 {
        fill: url(#Namnlös_övertoning_15);
      }

      .cls-25 {
        fill: url(#Namnlös_övertoning_9);
      }

      .cls-26 {
        letter-spacing: 0em;
      }

      .cls-27 {
        letter-spacing: 0em;
      }

      .cls-28 {
        letter-spacing: 0em;
      }

      .cls-29 {
        letter-spacing: .01em;
      }

      .cls-30 {
        fill: url(#Namnlös_övertoning_8);
      }

      .cls-31 {
        fill: #05053a;
      }

      .cls-32 {
        letter-spacing: 0em;
      }

      .cls-33 {
        fill: #c0068d;
      }

      .cls-10 {
        stroke: #f7f7fc;
      }

      .cls-34 {
        fill: url(#Namnlös_övertoning_22);
      }

      .cls-35 {
        fill: url(#Namnlös_övertoning);
      }

      .cls-36 {
        letter-spacing: 0em;
      }

      .cls-37 {
        fill: url(#Namnlös_övertoning_19);
      }

      .cls-5 {
        font-family: AcuminVariableConcept, 'Acumin Variable Concept';
        font-size: 46px;
        font-variation-settings: 'wght' 194, 'wdth' 100, 'slnt' 0;
      }

      .cls-38 {
        letter-spacing: .03em;
      }

      .cls-39 {
        letter-spacing: 0em;
      }

      .cls-40 {
        fill: url(#Namnlös_övertoning_11);
      }

      .cls-41 {
        fill: url(#Namnlös_övertoning_3);
      }

      .cls-42 {
        fill: url(#Namnlös_övertoning_24);
      }

      .cls-43 {
        fill: url(#Namnlös_övertoning_18);
      }
    </style>
    <linearGradient id="Namnlös_övertoning" data-name="Namnlös övertoning" x1="698" y1="713.5" x2="727" y2="713.5" gradientTransform="translate(0 1928) scale(1 -1)" gradientUnits="userSpaceOnUse">
      <stop offset=".11" stop-color="#c0068d"/>
      <stop offset=".81" stop-color="#1a002f"/>
      <stop offset=".91" stop-color="#1c0031"/>
      <stop offset="1" stop-color="#1c0030"/>
    </linearGradient>
    <linearGradient id="Namnlös_övertoning_2" data-name="Namnlös övertoning 2" x1="497" y1="585.5" x2="552" y2="585.5" gradientTransform="translate(0 1928) scale(1 -1)" gradientUnits="userSpaceOnUse">
      <stop offset=".11" stop-color="#c0068d"/>
      <stop offset=".81" stop-color="#1a002f"/>
      <stop offset=".91" stop-color="#1c0031"/>
      <stop offset="1" stop-color="#1c0030"/>
    </linearGradient>
    <linearGradient id="Namnlös_övertoning_3" data-name="Namnlös övertoning 3" x1="399.4" y1="734.78" x2="472.12" y2="734.78" gradientTransform="translate(0 1928) scale(1 -1)" gradientUnits="userSpaceOnUse">
      <stop offset=".11" stop-color="#c0068d"/>
      <stop offset=".81" stop-color="#1a002f"/>
      <stop offset=".91" stop-color="#1c0031"/>
      <stop offset="1" stop-color="#1c0030"/>
    </linearGradient>
    <linearGradient id="Namnlös_övertoning_4" data-name="Namnlös övertoning 4" x1="450" y1="593" x2="558" y2="593" gradientTransform="translate(0 1928) scale(1 -1)" gradientUnits="userSpaceOnUse">
      <stop offset=".11" stop-color="#c0068d"/>
      <stop offset=".81" stop-color="#1a002f"/>
      <stop offset=".91" stop-color="#1c0031"/>
      <stop offset="1" stop-color="#1c0030"/>
    </linearGradient>
    <linearGradient id="Namnlös_övertoning_5" data-name="Namnlös övertoning 5" x1="568.86" y1="544.93" x2="649.59" y2="544.93" gradientTransform="translate(0 1928) scale(1 -1)" gradientUnits="userSpaceOnUse">
      <stop offset=".11" stop-color="#c0068d"/>
      <stop offset=".81" stop-color="#1a002f"/>
      <stop offset=".91" stop-color="#1c0031"/>
      <stop offset="1" stop-color="#1c0030"/>
    </linearGradient>
    <linearGradient id="Namnlös_övertoning_6" data-name="Namnlös övertoning 6" x1="566.86" y1="544.93" x2="651.59" y2="544.93" gradientTransform="translate(0 1928) scale(1 -1)" gradientUnits="userSpaceOnUse">
      <stop offset=".11" stop-color="#c0068d"/>
      <stop offset=".81" stop-color="#1a002f"/>
      <stop offset=".91" stop-color="#1c0031"/>
      <stop offset="1" stop-color="#1c0030"/>
    </linearGradient>
    <linearGradient id="Namnlös_övertoning_7" data-name="Namnlös övertoning 7" x1="679.49" y1="538.22" x2="724.08" y2="538.22" gradientTransform="translate(0 1928) scale(1 -1)" gradientUnits="userSpaceOnUse">
      <stop offset="0" stop-color="#c0068d"/>
      <stop offset="1" stop-color="#1a002d"/>
    </linearGradient>
    <linearGradient id="Namnlös_övertoning_8" data-name="Namnlös övertoning 8" x1="626.86" y1="689.28" x2="671.48" y2="689.28" gradientTransform="translate(0 1928) scale(1 -1)" gradientUnits="userSpaceOnUse">
      <stop offset="0" stop-color="#c0068d"/>
      <stop offset="1" stop-color="#1a002d"/>
    </linearGradient>
    <linearGradient id="Namnlös_övertoning_9" data-name="Namnlös övertoning 9" x1="592.99" y1="1218.52" x2="741.87" y2="1218.52" gradientTransform="translate(0 1928) scale(1 -1)" gradientUnits="userSpaceOnUse">
      <stop offset="0" stop-color="#c0068d"/>
      <stop offset="1" stop-color="#1a002d"/>
    </linearGradient>
    <linearGradient id="Namnlös_övertoning_10" data-name="Namnlös övertoning 10" x1="690.28" y1="908.21" x2="778.26" y2="908.21" gradientTransform="translate(0 1928) scale(1 -1)" gradientUnits="userSpaceOnUse">
      <stop offset=".11" stop-color="#c0068d"/>
      <stop offset=".99" stop-color="#05053a"/>
    </linearGradient>
    <linearGradient id="Namnlös_övertoning_11" data-name="Namnlös övertoning 11" x1="733.84" y1="990.45" x2="792.74" y2="990.45" gradientTransform="translate(0 1928) scale(1 -1)" gradientUnits="userSpaceOnUse">
      <stop offset=".33" stop-color="#a2057c"/>
      <stop offset="1" stop-color="#7c056c"/>
    </linearGradient>
    <linearGradient id="Namnlös_övertoning_12" data-name="Namnlös övertoning 12" x1="464.47" y1="1138.12" x2="489.48" y2="1138.12" gradientTransform="translate(0 1928) scale(1 -1)" gradientUnits="userSpaceOnUse">
      <stop offset=".11" stop-color="#c0068d"/>
      <stop offset=".81" stop-color="#1a002f"/>
      <stop offset=".91" stop-color="#1c0031"/>
      <stop offset="1" stop-color="#1c0030"/>
    </linearGradient>
    <linearGradient id="Namnlös_övertoning_13" data-name="Namnlös övertoning 13" x1="432.57" y1="1033.63" x2="453.28" y2="1033.63" gradientTransform="translate(0 1928) scale(1 -1)" gradientUnits="userSpaceOnUse">
      <stop offset=".11" stop-color="#c0068d"/>
      <stop offset=".81" stop-color="#1a002f"/>
      <stop offset=".91" stop-color="#1c0031"/>
      <stop offset="1" stop-color="#1c0030"/>
    </linearGradient>
    <linearGradient id="Namnlös_övertoning_14" data-name="Namnlös övertoning 14" x1="358.46" y1="911" x2="526.84" y2="911" gradientTransform="translate(0 1928) scale(1 -1)" gradientUnits="userSpaceOnUse">
      <stop offset=".11" stop-color="#c0068d"/>
      <stop offset=".81" stop-color="#1a002f"/>
      <stop offset=".91" stop-color="#1c0031"/>
      <stop offset="1" stop-color="#1c0030"/>
    </linearGradient>
    <radialGradient id="Namnlös_övertoning_15" data-name="Namnlös övertoning 15" cx="679.5" cy="394.5" fx="679.5" fy="394.5" r="63" gradientTransform="translate(0 1928) scale(1 -1)" gradientUnits="userSpaceOnUse">
      <stop offset=".77" stop-color="#a2057c"/>
      <stop offset="1" stop-color="#05053a"/>
    </radialGradient>
    <linearGradient id="Namnlös_övertoning_16" data-name="Namnlös övertoning 16" x1="701" y1="352" x2="913" y2="352" gradientTransform="translate(0 1928) scale(1 -1)" gradientUnits="userSpaceOnUse">
      <stop offset=".33" stop-color="#a2057c"/>
      <stop offset="1" stop-color="#7c056c"/>
    </linearGradient>
    <linearGradient id="Namnlös_övertoning_17" data-name="Namnlös övertoning 17" x1="201" y1="648.5" x2="330" y2="648.5" gradientTransform="translate(0 1928) scale(1 -1)" gradientUnits="userSpaceOnUse">
      <stop offset=".33" stop-color="#a2057c"/>
      <stop offset="1" stop-color="#7c056c"/>
    </linearGradient>
    <linearGradient id="Namnlös_övertoning_18" data-name="Namnlös övertoning 18" x1="621.46" y1="711.29" x2="712.25" y2="711.29" gradientTransform="translate(0 1928) scale(1 -1)" gradientUnits="userSpaceOnUse">
      <stop offset=".11" stop-color="#c0068d"/>
      <stop offset=".81" stop-color="#1a002f"/>
      <stop offset=".91" stop-color="#1c0031"/>
      <stop offset="1" stop-color="#1c0030"/>
    </linearGradient>
    <linearGradient id="Namnlös_övertoning_19" data-name="Namnlös övertoning 19" x1="633" y1="1300.5" x2="678" y2="1300.5" gradientTransform="translate(0 1928) scale(1 -1)" gradientUnits="userSpaceOnUse">
      <stop offset=".11" stop-color="#c0068d"/>
      <stop offset=".81" stop-color="#1a002f"/>
      <stop offset=".91" stop-color="#1c0031"/>
      <stop offset="1" stop-color="#1c0030"/>
    </linearGradient>
    <linearGradient id="Namnlös_övertoning_20" data-name="Namnlös övertoning 20" x1="538" y1="1459.5" x2="667" y2="1459.5" gradientTransform="translate(0 1928) scale(1 -1)" gradientUnits="userSpaceOnUse">
      <stop offset=".33" stop-color="#a2057c"/>
      <stop offset="1" stop-color="#7c056c"/>
    </linearGradient>
    <linearGradient id="Namnlös_övertoning_21" data-name="Namnlös övertoning 21" x1="294" y1="1481" x2="506" y2="1481" gradientTransform="translate(0 1928) scale(1 -1)" gradientUnits="userSpaceOnUse">
      <stop offset=".33" stop-color="#a2057c"/>
      <stop offset="1" stop-color="#7c056c"/>
    </linearGradient>
    <linearGradient id="Namnlös_övertoning_22" data-name="Namnlös övertoning 22" x1="712" y1="1244.5" x2="825" y2="1244.5" gradientTransform="translate(0 1928) scale(1 -1)" gradientUnits="userSpaceOnUse">
      <stop offset=".33" stop-color="#a2057c"/>
      <stop offset="1" stop-color="#7c056c"/>
    </linearGradient>
    <linearGradient id="Namnlös_övertoning_23" data-name="Namnlös övertoning 23" x1="451.32" y1="1044.34" x2="696.23" y2="1044.34" gradientTransform="translate(0 1928) scale(1 -1)" gradientUnits="userSpaceOnUse">
      <stop offset="0" stop-color="#c0068d"/>
      <stop offset="1" stop-color="#05053a"/>
    </linearGradient>
    <linearGradient id="Namnlös_övertoning_24" data-name="Namnlös övertoning 24" x1="346.3" y1="903.4" x2="694.89" y2="903.4" gradientTransform="translate(0 1928) scale(1 -1)" gradientUnits="userSpaceOnUse">
      <stop offset=".06" stop-color="#c0068d"/>
      <stop offset=".32" stop-color="#c0068d"/>
      <stop offset=".99" stop-color="#1c0030"/>
    </linearGradient>
    <linearGradient id="Namnlös_övertoning_25" data-name="Namnlös övertoning 25" x1="517.15" y1="705.84" x2="622.41" y2="705.84" gradientTransform="translate(0 1928) scale(1 -1)" gradientUnits="userSpaceOnUse">
      <stop offset=".11" stop-color="#c0068d"/>
      <stop offset="1" stop-color="#05053a"/>
    </linearGradient>
  </defs>
  <g id="Lager_1" data-name="Lager 1">
    <g id="Lager_20" data-name="Lager 20">
      <rect class="cls-31" width="1107" height="1927"/>
    </g>
    <g id="Lager_19" data-name="Lager 19">
      <circle class="cls-35" cx="712.5" cy="1214.5" r="14.5"/>
    </g>
    <g id="Lager_18" data-name="Lager 18">
      <circle class="cls-6" cx="524.5" cy="1342.5" r="27.5"/>
    </g>
    <g id="Lager_17" data-name="Lager 17">
      <path class="cls-41" d="M408,1145c-8.94,7.15-10.85,23.7-6,35,3.41,7.94,10.11,13.18,15,17,9.93,7.76,13.4,5.84,17,11,7.53,10.79-4.46,23.72,2,32,6.07,7.77,25.65,7.9,33-2,7.11-9.58,0-24.83-1-27-3.45-7.41-6.56-7.33-8-13-2.78-10.96,7.38-16.97,7-26-.74-17.71-41.75-40.8-59-27Z"/>
    </g>
    <g id="Lager_15" data-name="Lager 15">
      <circle class="cls-7" cx="504" cy="1335" r="52"/>
    </g>
    <g id="Lager_16" data-name="Lager 16">
      <path class="cls-8" d="M580,1327c-5.42,10.03,1.49,23.96,3,27,4.08,8.21,7.98,9.04,10,17,.49,1.93,2.95,11.61-2,19-4.55,6.78-10.75,4.77-16,10-9.12,9.08-8.58,33.25,5,44,9.37,7.42,25.63,8.99,35,3,2.75-1.75,6.17-4.97,10-4,3.93,.99,3.98,5.28,8,7,4.9,2.09,13.63-.54,16-7,2.4-6.53-2.94-13.59-8-16-5.73-2.73-10.34,.88-13-2-3.23-3.51,2.65-9.87,0-16-3.04-7.03-12.98-3.79-18-10-6.19-7.66,3.11-19.84,8-48,2.89-16.66,4.33-25.7-1-31-8.32-8.28-30.55-4.93-37,7Z"/>
    </g>
    <g id="Lager_13" data-name="Lager 13">
      <path class="cls-19" d="M692.49,1295.6c10.16,9.73,20.79,19.87,26.24,33.14,2.59,6.3,3.86,13.08,3.15,19.88s-3.42,13.62-6.8,19.7c-6.87,12.35-16.86,22.63-23.81,34.93-6.54,11.56-10.33,24.47-11.91,37.62-1.78,14.84-.7,29.95,2.38,44.55,.4,1.89,3.29,1.09,2.89-.8-5.49-26.01-4.43-54.6,8.42-78.39,6.78-12.55,16.85-22.91,23.98-35.25,3.47-6,6.3-12.53,7.46-19.39s.53-13.8-1.65-20.39c-5.07-15.33-16.84-26.83-28.21-37.72-1.39-1.34-3.52,.78-2.12,2.12h-.02Z"/>
      <path class="cls-30" d="M670.96,1213.22c-7.74,2.04-14.05,7.17-19.24,13.09-5.84,6.66-10.66,14.2-15.72,21.44-3.34,4.78-6.68,9.57-10.02,14.35-1.11,1.59,1.49,3.09,2.59,1.51,5.66-8.1,11.31-16.21,16.97-24.31,4.4-6.29,9.03-12.64,15.09-17.47,3.3-2.63,7.04-4.64,11.13-5.72,1.86-.49,1.07-3.39-.8-2.89h0Z"/>
      <path class="cls-25" d="M607.83,665.53c-8.09-8.66-12.74-20.31-12.83-32.17s4.29-22.73,11.85-31.31c3.69-4.19,8.05-7.62,12.94-10.31s9.88-4.72,14.74-7.23,9.2-5.27,12.63-9.28c3.12-3.64,5.12-8,6.4-12.59,2.64-9.41,2.39-19.51,5.89-28.69,1.62-4.25,4.36-8.31,8.34-10.66s8.46-2.8,12.75-1.97,8.29,2.86,11.22,6.1c3.84,4.25,4.79,10.24,3.97,15.77-1.9,12.83-11.2,22.74-15.52,34.68-7.76,21.48,8.62,39.47,14.07,59.16,1.32,4.77,1.95,9.79,1.15,14.71-.86,5.31-3.31,10.14-6.02,14.73-5.37,9.11-12.15,18.26-11.49,29.4,.71,11.95,8.62,21.96,16.03,30.75,7.67,9.1,16.87,19.69,16.71,32.33-.15,11.35-8.88,20.04-12.01,30.52-3.5,11.71,2.66,22.33,11.17,30.04,4.91,4.44,10.43,8.14,15.33,12.59,4.11,3.73,7.61,8.13,10.25,13.01,5.13,9.47,6.76,21.59-.79,30.31s-19.93,11.28-30.59,13.77c-13.86,3.24-27.92,5.65-42.08,7.18-6.84,.74-13.71,1.28-20.59,1.63-1.92,.1-1.93,3.1,0,3,14.49-.74,28.93-2.34,43.23-4.81,7.26-1.26,14.48-2.74,21.65-4.44,5.79-1.38,11.58-2.82,17.08-5.13,10.05-4.21,18.38-11.84,19.43-23.21,1.02-11.01-4.73-21.92-11.91-29.86-8.63-9.55-21.43-15.17-27.62-26.9-2.92-5.54-3.34-11.5-1.35-17.42,1.81-5.36,4.96-10.15,7.48-15.19s4.5-10.52,4.3-16.31c-.21-6.12-2.49-11.95-5.54-17.19-6.38-10.96-16.26-19.37-22.5-30.41-3.09-5.46-5.15-11.55-4.64-17.89,.46-5.66,3.04-10.86,5.85-15.69,5.43-9.3,11.99-18.23,11.96-29.48-.03-10.59-4.93-20.44-9.33-29.81-4.44-9.47-9.24-19.61-8.28-30.35,1.18-13.16,11.09-23.45,15.5-35.5,3.81-10.42,3.28-22.64-6.57-29.38-7.22-4.94-17.84-5.74-25.12-.49-8.17,5.89-10.21,16.22-11.6,25.56-1.51,10.09-2.67,20.99-10.58,28.32s-19.89,10.17-29.05,16.5-16.35,16.13-19.66,26.99-2.5,23.52,2.14,34.31c2.3,5.33,5.51,10.19,9.47,14.43,1.32,1.41,3.44-.71,2.12-2.12h.02Z"/>
    </g>
    <g id="Lager_14" data-name="Lager 14">
      <path class="cls-23" d="M758,975c-11.46-1.14-24,6-24,6h0s-9.36-2.67-15-3c-7.05-.41-17.79,2.28-24,11-7.17,10.07-5.63,24.46,1,32,5.1,5.8,9.2,2.99,16,9,9.97,8.81,5.12,18.34,14,27,6.68,6.52,18.53,10.01,29,6,9.5-3.64,16.87-13.07,17-22,.1-6.75-4.03-7.53-4-15,.03-7.96,4.72-9.26,8-21,1.87-6.7,3.46-12.37,1-18-3.3-7.53-12.26-11.33-19-12Z"/>
      <circle class="cls-40" cx="763.29" cy="937.55" r="29.45"/>
    </g>
    <g id="Lager_12" data-name="Lager 12">
      <path class="cls-33" d="M350.09,1107.26c-9.4,19.96-14.02,42.77-9.45,64.63,3.82,18.28,14.78,35.15,30.63,45.23,7.98,5.07,16.92,7.95,26.32,8.77,10.96,.95,22.31-.41,33,2.71,16.26,4.76,24.33,20.62,32.81,33.88,4.14,6.48,8.64,12.97,14.61,17.91,6.79,5.62,14.78,8.07,23.46,8.92,9.31,.9,19.07,.15,28.03,3.28,4.32,1.51,8.22,4.14,11.04,7.76s4.58,8.17,5.55,12.71c2.36,11,.15,22.2-.5,33.26-.61,10.3,.7,20.25,5.61,29.43,8.5,15.87,25.47,27.07,43.67,27,18.03-.07,35.88-10.53,44.41-26.48s6.88-36.44-3.1-51.42c-2.45-3.67-5.37-7-8.73-9.86-1.46-1.24-3.59,.87-2.12,2.12,13.52,11.51,19.44,30.83,15.07,48.01s-19.75,30.43-37.17,33.81c-17.77,3.44-35.79-4.76-46.15-19.37-5.41-7.63-8.37-16.46-8.65-25.8-.34-11.38,2.38-22.66,1.57-34.04-.64-8.98-3.35-18.47-10.32-24.63s-16.17-7.45-25.06-7.99-18.62-.25-27.01-4.11c-6.73-3.09-12.01-8.43-16.38-14.3-9.06-12.18-15.19-27.18-27.48-36.67-7.63-5.89-16.82-7.91-26.29-8.43-10.42-.56-20.99,.23-31.11-2.8-17.27-5.18-30.95-19.1-38.25-35.31-8.72-19.39-7.62-41.94-1.31-61.85,1.61-5.09,3.58-10.05,5.85-14.88,.82-1.74-1.77-3.26-2.59-1.51h0l.04,.02Z"/>
      <path class="cls-2" d="M488.47,774.85c-5.97,3.28-13.44,2.63-18.85,7.14-6.31,5.26-6.32,14.2-6.02,21.68,.08,1.92,3.08,1.93,3,0-.27-6.77-.58-15.63,5.73-20,5.21-3.6,12.14-3.19,17.66-6.23,1.69-.93,.18-3.52-1.51-2.59h-.01Z"/>
      <path class="cls-20" d="M452.22,865.79c-13.12,9.78-20.98,25.4-20.64,41.82,.1,4.95,.93,9.87,2.44,14.58,.59,1.83,3.48,1.05,2.89-.8-4.84-15.11-1.94-31.99,7.98-44.42,2.57-3.22,5.54-6.13,8.84-8.59,1.53-1.14,.04-3.75-1.51-2.59h0Z"/>
    </g>
    <g id="Lager_11" data-name="Lager 11">
      <path class="cls-11" d="M480,932c9.47,13.43,7.9,29.06,7,38-1.77,17.66-8.12,18.45-8,29,.26,23.85,32.78,28.13,44,57,7.89,20.3,3.51,48.27-12,61-28.27,23.2-91.71-5.68-98-36-3.83-18.45,15.43-28.12,9-51-4.06-14.46-18.46-34.47-21-38-3.65-5.08-6.59-8.54-9-15-4.29-11.51-1.13-17.13-6-22-5.49-5.5-11.89-.74-19-6-7.68-5.68-11.37-19.49-6-26,5.51-6.67,20.33-5.4,28,1,4.72,3.94,6.21,9.38,14,13,1.35,.63,5.4,2.51,7,1,1.59-1.5-.81-4.88-1-9-.36-7.88,7.51-15.98,15-19,7.59-3.06,14.41-.76,25,3,12.88,4.57,23.48,8.33,31,19Z"/>
    </g>
    <g id="Lager_10" data-name="Lager 10">
      <circle class="cls-24" cx="679.5" cy="1533.5" r="63"/>
      <circle class="cls-14" cx="807" cy="1576" r="106"/>
      <circle class="cls-22" cx="265.5" cy="1279.5" r="64.5"/>
    </g>
    <g id="Lager_9" data-name="Lager 9">
      <path class="cls-43" d="M693,1199c-4.52,11.09-6.73,13.55-5,21,.88,3.77,.43,6.96,5,12,18,19.84,13,15.81,16,20,8.18,11.41-.18,34.4-13,41.25-10.85,5.81-22,8.75-45-5.01-15.38-9.2-26.39,4.18-29,0-2.34-3.75,2.58-10.31,21-35.06,16.19-21.74,24.28-32.75,24-39.06-.7-15.69-17.81-17.65-22-37.06-3.41-15.8,3.1-36.95,16-41.07,15.35-4.9,40.21,18.09,41,35,.25,5.36-2.83,12.88-9,28h0Z"/>
    </g>
    <g id="Lager_2" data-name="Lager 2">
      <circle class="cls-37" cx="655.5" cy="627.5" r="22.5"/>
      <circle class="cls-12" cx="602.5" cy="468.5" r="64.5"/>
      <circle class="cls-15" cx="400" cy="447" r="106"/>
      <circle class="cls-34" cx="768.5" cy="683.5" r="56.5"/>
    </g>
    <g id="Lager_4" data-name="Lager 4">
      <path class="cls-13" d="M604,662c-17.71,7.01-22.1,26.11-23,30-1.09,4.75-.42,5.55-1,13-.43,5.47-2.31,29.45-13,44-8.62,11.74-17.12,9.36-33,19-22.93,13.91-38.32,38.95-43,60-5.36,24.13,7.03,26.47,12,75,3.16,30.88,5.46,53.26-7,74-11.06,18.41-21.36,14.91-33,35-3.07,5.29-20.48,35.34-6,64,11.67,23.08,35.94,29.27,39,30,17.29,4.11,39.1,1.12,52-12,10.6-10.78,6.99-20.08,20-31,2.65-2.23,16.43-13.8,29-10,10.71,3.24,9.14,14.2,25,30,6.75,6.72,14.76,14.7,27,17,11.5,2.16,28.55-.37,39-14,9.75-12.72,10.95-31.45,3-42-6.27-8.32-14.14-6.11-45-21-10.61-5.12-12.71-6.84-14-8-11-9.91-15.75-26.7-14-41,1.41-11.52,12.62-25.5,35-53,14.13-17.37,16.99-19.58,21-28,8.88-18.68,8.33-36.25,8-44-.32-7.61-2.94-48.89-31-72-6.17-5.08-10.54-6.79-13-13-4.95-12.51,3.34-29.42,10-43,3.48-7.1,3.92-6.57,5-10,3.41-10.8,3.13-28.77-10-41-10.07-9.38-25.5-13.35-39-8Z"/>
    </g>
    <g id="Lager_6" data-name="Lager 6">
      <path class="cls-42" d="M502,711c-14.8,.82-24.9,18.28-23,30,.97,6,4.34,5.87,7,13,5.16,13.82-1.22,31.12-11,41-7.34,7.42-10.65,4.64-18,11-14.03,12.13-19.86,37.69-12,56,7.11,16.58,19.39,13.1,35,34,4.16,5.57,16.15,21.63,17,44,.96,25.33-12.7,50.33-32,63-12.77,8.38-28.13,11.44-41,14-12.39,2.47-14.82,1.47-22,3-19.51,4.15-41.76,20.07-51,43-15.33,38.05,9.47,84.73,36,93,11.68,3.64,20.52-1.16,43,6,9.21,2.93,17.09,5.44,25,12,16.06,13.32,9.86,24.8,24,36,14.99,11.87,37.33,11.15,42,11,11.91-.38,13.93-3.38,20-1,13.44,5.28,19.34,26.21,19,42-.33,15.36-6.34,16.35-6,29,.41,15.02,9.49,35.92,30,44,18.13,7.14,39.28,1.94,51-11,10.16-11.22,10.59-25.33,11-39,.76-25.17-7.55-27.44-8-47-.83-36.19,26.53-74.99,44-93,3.42-3.52,8.27-8.11,11-16,4.2-12.1,1.65-26.9-10-47-26.54-45.79-54.64-40.29-63-69-8.04-27.63,15.86-39.97,5-77-1.21-4.14-8.34-28.42-23-31-6.66-1.17-9.02,3.17-18,3-12-.22-25.45-8.31-30-19-6.07-14.26,8.72-21.34,8-41-.82-22.33-20.25-22.34-35-60-6.77-17.28-12.28-31.36-7-46,2.2-6.09,5.74-10.8,4-17-2.29-8.18-12.54-14.52-22-14Z"/>
    </g>
    <g id="Lager_3" data-name="Lager 3">
      <path class="cls-1" d="M589,1159c-11.49,1.24-17.05,5.41-20,9-5.52,6.7-2.79,12.41-9,19-3.44,3.65-5.38,3.07-18,9-10.38,4.88-15.57,7.32-18,10-7.88,8.69-9.5,26-2,35,7.03,8.44,16.56,2.96,27,13,6.85,6.58,4.26,10.4,11,18,1.5,1.7,15.41,16.88,34,13,13.81-2.88,25.12-15.22,26-27,.81-10.85-7.79-13.6-8-30-.11-8.42,2.05-16,3-19,3.15-9.92,5.85-9.89,7-16,1.99-10.55-3.4-24.71-15-31-7.18-3.9-14.38-3.5-18-3Z"/>
    </g>
  </g>
  <g id="LOGO">
    <polyline id="Fill-1" class="cls-4" points="317.15 281.87 317.15 175.85 284.1 175.85 284.1 149.53 376.75 149.53 376.75 175.85 343.7 175.85 343.7 281.87 317.15 281.87"/>
    <polyline id="Fill-2" class="cls-4" points="184.51 272.59 158.38 272.59 158.38 142.91 165.32 142.91 231.31 217.52 231.31 145.75 257.64 145.75 257.64 275.26 250.69 275.26 184.51 203.49 184.51 272.59"/>
    <polygon id="Fill-3" class="cls-4" points="403.22 281.87 429.69 281.87 429.69 149.53 403.22 149.53 403.22 281.87"/>
    <path id="Fill-13" class="cls-4" d="M198.08,89.49v-25.99H59.11V209.02c0,99.23,49.8,130.96,131.06,174.51l7.9,4.22v-29.43l-.98-.52c-73.75-39.74-112.23-64.4-112.23-148.78V89.49h113.21"/>
    <g>
      <path class="cls-3" d="M317.7,298.47l-1.38,12.75h-20.37v75.39h-12.3v-75.39h-21.75l1.28-12.75h54.52Z"/>
      <path class="cls-3" d="M373.3,298.47l-1.38,12.38h-31.69v24.51h29.92l-1.38,12.38h-28.54v26.49h33.07l-1.38,12.38h-43.99v-88.14h45.36Z"/>
      <path class="cls-3" d="M394.46,357.77h18.01v-22.16l11.51-2.47v24.64h7.78l-1.48,11.76h-6.3v17.09h-11.51v-17.09h-30.51v-10.4l26.08-57.31h12.1l-25.69,55.95h0Z"/>
    </g>
  </g>
  <g id="Skåne">
    <text class="cls-5" transform="translate(82.81 509.95)"><tspan class="cls-36" x="0" y="0">S</tspan><tspan class="cls-28" x="27.19" y="0">K</tspan><tspan x="55.15" y="0">Å</tspan><tspan class="cls-16" x="84.64" y="0">N</tspan><tspan class="cls-38" x="118.95" y="0">E</tspan><tspan class="cls-26" x="147.29" y="0">T</tspan><tspan class="cls-17" x="172.04" y="0">R</tspan><tspan x="201.52" y="0">AF</tspan><tspan class="cls-16" x="256.22" y="0">I</tspan><tspan class="cls-21" x="268.18" y="0">K</tspan><tspan x="296.92" y="0">EN</tspan></text>
    <rect class="cls-3" x="83.97" y="541" width="350.93" height="5.98"/>
    <rect class="cls-3" x="83.5" y="693.34" width="350.93" height="5.98"/>
    <rect class="cls-3" x="85.97" y="771.65" width="350.93" height="5.98"/>
    <rect class="cls-3" x="83.5" y="615.03" width="350.93" height="5.98"/>
    <text class="cls-5" transform="translate(416.61 1764.33)"><tspan x="0" y="0">S</tspan><tspan class="cls-29" x="27" y="0">T</tspan><tspan class="cls-36" x="52.3" y="0">U</tspan><tspan class="cls-27" x="85.01" y="0">DE</tspan><tspan class="cls-39" x="144.53" y="0">N</tspan><tspan x="178.71" y="0">TEN</tspan></text>
    <text class="cls-5" transform="translate(83.84 865.29)"><tspan class="cls-18" x="0" y="0">L</tspan><tspan class="cls-32" x="23.64" y="0">U</tspan><tspan class="cls-26" x="56.35" y="0">N</tspan><tspan class="cls-16" x="90.2" y="0">CH</tspan><tspan class="cls-27" x="155.2" y="0">EN</tspan></text>
    <rect class="cls-10" x="83.5" y="901.5" width="333" height="215"/>
  </g>
  <g id="Cloud">
    <path class="cls-9" d="M931.3,173.75c-.15,0-.3,.01-.45,.01-6.67-13.18-17.74-23.62-32.1-28.58-14.52-5.02-29.85-3.57-43.35,2.86-4.77-26.23-23.79-47.25-49.24-51.15-32.97-5.05-64.25,20.54-69.85,57.15-.43,2.78-.67,5.53-.78,8.27-9.07-3.24-19.1-5.06-29.66-5.06-40.51,0-73.36,26.5-73.36,59.2s32.84,59.2,73.36,59.2c1.72,0,3.42-.06,5.11-.16h220.34c28.1,0,50.87-22.78,50.87-50.87s-22.78-50.87-50.87-50.87Z"/>
  </g>
  <g id="Linn_form" data-name="Linn form">
    <rect class="cls-9" x="85.5" y="1158.21" width="923" height="538.21"/>
    <rect class="cls-9" x="494.03" y="610.42" width="642.57" height="374.68" transform="translate(17.55 1613.07) rotate(-90)"/>
  </g>
</svg>